<svg width="40" height="40" viewBox="0 0 24 24" fill="currentColor" xmlns="http://www.w3.org/2000/svg">
  <path d="M16 4c0-1.11.89-2 2-2s2 .89 2 2-.89 2-2 2-2-.89-2-2zm4 18v-6h2.5l-2.54-7.63A2.01 2.01 0 0 0 18.05 7h-.81C16.84 7 16 7.84 16 8.25V16l-2.5-1.5L11 16.5V8.25C11 7.84 10.16 7 9.76 7h-.81c-.79 0-1.5.54-1.69 1.37L4.72 16H7.5v6H4v-4.5H1l2.54-7.63A4.02 4.02 0 0 1 7.44 5h.81c1.33 0 2.5.84 2.94 2.06.44-1.22 1.61-2.06 2.94-2.06h.81c1.69 0 3.15 1.15 3.56 2.8L21 16v4.5h-1V22h-3z"/>
  <circle cx="6" cy="4" r="2" fill="white"/>
  <circle cx="12" cy="2" r="1" fill="white"/>
</svg>